<svg xmlns="http://www.w3.org/2000/svg" xmlns:xlink="http://www.w3.org/1999/xlink" width="1920" zoomAndPan="magnify" viewBox="0 0 1440 809.999993" height="1080" preserveAspectRatio="xMidYMid meet" version="1.0"><defs><g/><clipPath id="82deda86cd"><rect x="0" width="706" y="0" height="345"/></clipPath><clipPath id="406a1dbf91"><path d="M 1250 105.078125 L 1399 105.078125 L 1399 701.328125 L 1250 701.328125 Z M 1250 105.078125 " clip-rule="nonzero"/></clipPath><clipPath id="c97f005f3e"><path d="M 41 108.664062 L 190 108.664062 L 190 704.914062 L 41 704.914062 Z M 41 108.664062 " clip-rule="nonzero"/></clipPath></defs><g transform="matrix(1, 0, 0, 1, 386, 234)"><g clip-path="url(#82deda86cd)"><g fill="#000000" fill-opacity="1"><g transform="translate(0.173727, 272.824481)"><g><path d="M 137.015625 0 L 21.453125 0 L 21.453125 -194.515625 L 137.015625 -194.515625 L 137.015625 -175.921875 L 41.484375 -175.921875 L 41.484375 -106.703125 L 134.15625 -106.703125 L 134.15625 -87.8125 L 41.484375 -87.8125 L 41.484375 -18.59375 L 137.015625 -18.59375 Z M 137.015625 0 "/></g></g></g><g fill="#000000" fill-opacity="1"><g transform="translate(196.119795, 272.824481)"><g><path d="M 199.953125 -59.5 C 192.703125 -40.8125 180.878906 -25.84375 164.484375 -14.59375 C 147.890625 -2.957031 129.675781 2.859375 109.84375 2.859375 C 82.957031 2.859375 59.976562 -7.054688 40.90625 -26.890625 C 22.21875 -46.335938 12.875 -69.695312 12.875 -96.96875 C 12.875 -110.507812 15.351562 -123.382812 20.3125 -135.59375 C 25.269531 -147.601562 32.132812 -158.1875 40.90625 -167.34375 C 59.976562 -187.175781 82.957031 -197.09375 109.84375 -197.09375 C 129.675781 -197.09375 147.789062 -191.460938 164.1875 -180.203125 C 180.59375 -168.765625 192.414062 -153.796875 199.65625 -135.296875 L 177.640625 -135.296875 C 167.148438 -154.554688 151.507812 -167.332031 130.71875 -173.625 C 123.851562 -175.53125 115.941406 -176.484375 106.984375 -176.484375 C 98.015625 -176.484375 88.859375 -174.390625 79.515625 -170.203125 C 70.171875 -165.816406 62.066406 -160 55.203125 -152.75 C 40.328125 -137.300781 32.890625 -118.707031 32.890625 -96.96875 C 32.890625 -75.414062 40.328125 -56.921875 55.203125 -41.484375 C 70.273438 -25.648438 88.488281 -17.734375 109.84375 -17.734375 C 124.332031 -17.734375 137.679688 -21.546875 149.890625 -29.171875 C 161.898438 -36.804688 171.242188 -46.914062 177.921875 -59.5 Z M 199.953125 -59.5 "/></g></g></g><g fill="#000000" fill-opacity="1"><g transform="translate(442.125055, 272.824481)"><g><path d="M 192.796875 -97.828125 C 192.796875 -119.753906 184.976562 -138.535156 169.34375 -154.171875 C 153.707031 -169.816406 134.828125 -177.640625 112.703125 -177.640625 C 90.773438 -177.640625 71.988281 -169.816406 56.34375 -154.171875 C 40.707031 -138.535156 32.890625 -119.753906 32.890625 -97.828125 C 32.890625 -75.703125 40.707031 -56.820312 56.34375 -41.1875 C 71.988281 -25.550781 90.773438 -17.734375 112.703125 -17.734375 C 134.828125 -17.734375 153.707031 -25.550781 169.34375 -41.1875 C 184.976562 -56.820312 192.796875 -75.703125 192.796875 -97.828125 Z M 212.8125 -97.828125 C 212.8125 -84.097656 210.238281 -71.128906 205.09375 -58.921875 C 199.757812 -46.722656 192.609375 -36.140625 183.640625 -27.171875 C 174.484375 -18.015625 163.804688 -10.863281 151.609375 -5.71875 C 139.398438 -0.382812 126.429688 2.28125 112.703125 2.28125 C 98.972656 2.28125 86.101562 -0.382812 74.09375 -5.71875 C 61.882812 -10.863281 51.296875 -18.015625 42.328125 -27.171875 C 33.179688 -36.140625 26.03125 -46.722656 20.875 -58.921875 C 15.539062 -71.128906 12.875 -84.097656 12.875 -97.828125 C 12.875 -111.554688 15.539062 -124.523438 20.875 -136.734375 C 26.03125 -148.929688 33.179688 -159.515625 42.328125 -168.484375 C 51.296875 -177.441406 61.882812 -184.59375 74.09375 -189.9375 C 86.101562 -195.082031 98.972656 -197.65625 112.703125 -197.65625 C 126.429688 -197.65625 139.398438 -195.082031 151.609375 -189.9375 C 163.804688 -184.59375 174.484375 -177.441406 183.640625 -168.484375 C 192.609375 -159.515625 199.757812 -148.929688 205.09375 -136.734375 C 210.238281 -124.523438 212.8125 -111.554688 212.8125 -97.828125 Z M 212.8125 -97.828125 "/></g></g></g></g></g><g clip-path="url(#406a1dbf91)"><path fill="#000000" d="M 1288.273438 701.503906 C 1288.980469 701.503906 1289.65625 701.359375 1290.304688 701.070312 C 1290.949219 700.78125 1291.507812 700.375 1291.980469 699.84375 C 1366.585938 616.226562 1404.171875 508.410156 1397.792969 396.230469 C 1391.417969 284.050781 1341.917969 181.253906 1258.375 106.699219 C 1258.132812 106.480469 1257.867188 106.289062 1257.589844 106.125 C 1257.308594 105.957031 1257.011719 105.820312 1256.707031 105.714844 C 1256.398438 105.605469 1256.082031 105.527344 1255.761719 105.484375 C 1255.4375 105.4375 1255.113281 105.425781 1254.789062 105.441406 C 1254.460938 105.460938 1254.140625 105.511719 1253.824219 105.59375 C 1253.511719 105.671875 1253.207031 105.785156 1252.914062 105.925781 C 1252.617188 106.066406 1252.339844 106.238281 1252.082031 106.433594 C 1251.820312 106.628906 1251.582031 106.847656 1251.363281 107.089844 C 1251.148438 107.335938 1250.957031 107.597656 1250.789062 107.875 C 1250.625 108.15625 1250.488281 108.453125 1250.378906 108.757812 C 1250.273438 109.066406 1250.195312 109.382812 1250.148438 109.703125 C 1250.105469 110.027344 1250.089844 110.351562 1250.109375 110.675781 C 1250.128906 111.003906 1250.175781 111.324219 1250.257812 111.640625 C 1250.339844 111.953125 1250.453125 112.257812 1250.59375 112.554688 C 1250.734375 112.847656 1250.902344 113.125 1251.097656 113.382812 C 1251.296875 113.644531 1251.515625 113.882812 1251.757812 114.101562 C 1333.335938 186.90625 1381.699219 287.292969 1387.910156 396.804688 C 1394.121094 506.3125 1357.417969 611.601562 1284.601562 693.230469 C 1284.285156 693.585938 1284.023438 693.980469 1283.820312 694.410156 C 1283.617188 694.84375 1283.476562 695.292969 1283.40625 695.765625 C 1283.332031 696.238281 1283.324219 696.710938 1283.386719 697.183594 C 1283.453125 697.65625 1283.578125 698.109375 1283.773438 698.546875 C 1283.964844 698.984375 1284.21875 699.382812 1284.527344 699.746094 C 1284.835938 700.113281 1285.1875 700.425781 1285.589844 700.6875 C 1285.988281 700.949219 1286.414062 701.148438 1286.871094 701.289062 C 1287.328125 701.425781 1287.796875 701.496094 1288.273438 701.503906 Z M 1288.273438 701.503906 " fill-opacity="1" fill-rule="nonzero"/></g><path fill="#000000" d="M 1089.960938 524.515625 C 1090.667969 524.519531 1091.34375 524.375 1091.992188 524.085938 C 1092.636719 523.796875 1093.195312 523.386719 1093.667969 522.859375 C 1095.351562 520.976562 1096.988281 519.054688 1098.574219 517.09375 C 1100.164062 515.128906 1101.703125 513.128906 1103.191406 511.089844 C 1104.683594 509.054688 1106.121094 506.980469 1107.511719 504.871094 C 1108.898438 502.761719 1110.234375 500.621094 1111.515625 498.445312 C 1112.800781 496.269531 1114.027344 494.066406 1115.203125 491.832031 C 1116.378906 489.59375 1117.496094 487.332031 1118.5625 485.042969 C 1119.625 482.753906 1120.632812 480.4375 1121.582031 478.097656 C 1122.53125 475.757812 1123.421875 473.398438 1124.257812 471.015625 C 1125.089844 468.632812 1125.867188 466.230469 1126.582031 463.808594 C 1127.296875 461.386719 1127.953125 458.949219 1128.550781 456.496094 C 1129.144531 454.042969 1129.679688 451.574219 1130.15625 449.097656 C 1130.632812 446.617188 1131.046875 444.125 1131.398438 441.625 C 1131.75 439.125 1132.042969 436.617188 1132.269531 434.105469 C 1132.5 431.589844 1132.667969 429.070312 1132.773438 426.546875 C 1132.878906 424.027344 1132.921875 421.5 1132.90625 418.976562 C 1132.886719 416.453125 1132.808594 413.929688 1132.664062 411.410156 C 1132.523438 408.886719 1132.320312 406.371094 1132.054688 403.859375 C 1131.789062 401.351562 1131.460938 398.847656 1131.070312 396.351562 C 1130.683594 393.855469 1130.234375 391.375 1129.722656 388.902344 C 1129.210938 386.429688 1128.640625 383.96875 1128.007812 381.523438 C 1127.378906 379.078125 1126.6875 376.652344 1125.9375 374.242188 C 1125.1875 371.832031 1124.375 369.441406 1123.507812 367.070312 C 1122.640625 364.699219 1121.714844 362.351562 1120.730469 360.023438 C 1119.746094 357.699219 1118.707031 355.398438 1117.609375 353.125 C 1116.515625 350.851562 1115.363281 348.605469 1114.15625 346.386719 C 1112.949219 344.167969 1111.6875 341.980469 1110.375 339.824219 C 1109.0625 337.667969 1107.695312 335.546875 1106.277344 333.457031 C 1104.855469 331.371094 1103.386719 329.316406 1101.871094 327.300781 C 1100.351562 325.285156 1098.78125 323.304688 1097.164062 321.367188 C 1095.550781 319.425781 1093.886719 317.527344 1092.175781 315.667969 C 1090.464844 313.8125 1088.710938 311.996094 1086.914062 310.226562 C 1085.113281 308.453125 1083.273438 306.726562 1081.390625 305.046875 C 1081.144531 304.828125 1080.882812 304.636719 1080.605469 304.472656 C 1080.324219 304.304688 1080.027344 304.167969 1079.722656 304.0625 C 1079.414062 303.953125 1079.097656 303.875 1078.777344 303.832031 C 1078.453125 303.785156 1078.128906 303.773438 1077.804688 303.789062 C 1077.476562 303.808594 1077.15625 303.859375 1076.839844 303.941406 C 1076.527344 304.019531 1076.222656 304.132812 1075.925781 304.273438 C 1075.632812 304.414062 1075.355469 304.582031 1075.097656 304.78125 C 1074.835938 304.976562 1074.597656 305.195312 1074.378906 305.4375 C 1074.164062 305.679688 1073.972656 305.945312 1073.804688 306.222656 C 1073.640625 306.503906 1073.503906 306.800781 1073.394531 307.105469 C 1073.289062 307.414062 1073.210938 307.730469 1073.164062 308.050781 C 1073.121094 308.375 1073.105469 308.699219 1073.125 309.023438 C 1073.144531 309.351562 1073.191406 309.671875 1073.273438 309.988281 C 1073.355469 310.300781 1073.46875 310.605469 1073.609375 310.902344 C 1073.75 311.195312 1073.917969 311.472656 1074.113281 311.730469 C 1074.3125 311.992188 1074.53125 312.230469 1074.773438 312.449219 C 1076.535156 314.019531 1078.261719 315.636719 1079.945312 317.292969 C 1081.628906 318.953125 1083.273438 320.648438 1084.875 322.390625 C 1086.476562 324.128906 1088.03125 325.902344 1089.546875 327.71875 C 1091.058594 329.535156 1092.527344 331.386719 1093.949219 333.273438 C 1095.375 335.160156 1096.75 337.082031 1098.078125 339.035156 C 1099.40625 340.992188 1100.683594 342.976562 1101.914062 344.996094 C 1103.144531 347.011719 1104.328125 349.058594 1105.457031 351.132812 C 1106.585938 353.210938 1107.664062 355.3125 1108.691406 357.441406 C 1109.71875 359.570312 1110.691406 361.722656 1111.613281 363.898438 C 1112.535156 366.074219 1113.402344 368.273438 1114.214844 370.492188 C 1115.027344 372.710938 1115.785156 374.949219 1116.488281 377.207031 C 1117.191406 379.460938 1117.835938 381.734375 1118.429688 384.023438 C 1119.019531 386.3125 1119.554688 388.613281 1120.03125 390.925781 C 1120.511719 393.242188 1120.929688 395.566406 1121.292969 397.902344 C 1121.660156 400.238281 1121.964844 402.582031 1122.214844 404.929688 C 1122.460938 407.28125 1122.652344 409.636719 1122.785156 411.996094 C 1122.917969 414.355469 1122.992188 416.714844 1123.011719 419.078125 C 1123.027344 421.441406 1122.984375 423.804688 1122.886719 426.167969 C 1122.789062 428.527344 1122.628906 430.886719 1122.414062 433.238281 C 1122.199219 435.59375 1121.925781 437.941406 1121.597656 440.28125 C 1121.265625 442.621094 1120.878906 444.949219 1120.433594 447.273438 C 1119.988281 449.59375 1119.484375 451.902344 1118.925781 454.199219 C 1118.367188 456.496094 1117.753906 458.777344 1117.082031 461.042969 C 1116.414062 463.308594 1115.6875 465.554688 1114.90625 467.785156 C 1114.125 470.019531 1113.289062 472.226562 1112.398438 474.417969 C 1111.507812 476.605469 1110.566406 478.773438 1109.570312 480.914062 C 1108.574219 483.058594 1107.523438 485.175781 1106.425781 487.269531 C 1105.324219 489.359375 1104.171875 491.421875 1102.972656 493.457031 C 1101.769531 495.492188 1100.519531 497.496094 1099.21875 499.472656 C 1097.917969 501.445312 1096.570312 503.382812 1095.175781 505.292969 C 1093.777344 507.199219 1092.335938 509.070312 1090.847656 510.90625 C 1089.363281 512.742188 1087.828125 514.542969 1086.253906 516.304688 C 1085.933594 516.660156 1085.675781 517.058594 1085.472656 517.492188 C 1085.265625 517.921875 1085.128906 518.375 1085.054688 518.851562 C 1084.984375 519.324219 1084.980469 519.796875 1085.042969 520.273438 C 1085.105469 520.746094 1085.238281 521.203125 1085.433594 521.640625 C 1085.628906 522.074219 1085.882812 522.476562 1086.195312 522.839844 C 1086.503906 523.203125 1086.863281 523.515625 1087.261719 523.777344 C 1087.664062 524.035156 1088.09375 524.234375 1088.554688 524.371094 C 1089.011719 524.507812 1089.480469 524.578125 1089.960938 524.578125 Z M 1089.960938 524.515625 " fill-opacity="1" fill-rule="nonzero"/><path fill="#000000" d="M 1089.960938 524.515625 C 1090.667969 524.519531 1091.34375 524.375 1091.992188 524.085938 C 1092.636719 523.796875 1093.195312 523.386719 1093.667969 522.859375 C 1095.351562 520.976562 1096.988281 519.054688 1098.574219 517.09375 C 1100.164062 515.128906 1101.703125 513.128906 1103.191406 511.089844 C 1104.683594 509.054688 1106.121094 506.980469 1107.511719 504.871094 C 1108.898438 502.761719 1110.234375 500.621094 1111.515625 498.445312 C 1112.800781 496.269531 1114.027344 494.066406 1115.203125 491.832031 C 1116.378906 489.59375 1117.496094 487.332031 1118.5625 485.042969 C 1119.625 482.753906 1120.632812 480.4375 1121.582031 478.097656 C 1122.53125 475.757812 1123.421875 473.398438 1124.257812 471.015625 C 1125.089844 468.632812 1125.867188 466.230469 1126.582031 463.808594 C 1127.296875 461.386719 1127.953125 458.949219 1128.550781 456.496094 C 1129.144531 454.042969 1129.679688 451.574219 1130.15625 449.097656 C 1130.632812 446.617188 1131.046875 444.125 1131.398438 441.625 C 1131.75 439.125 1132.042969 436.617188 1132.269531 434.105469 C 1132.5 431.589844 1132.667969 429.070312 1132.773438 426.546875 C 1132.878906 424.027344 1132.921875 421.5 1132.90625 418.976562 C 1132.886719 416.453125 1132.808594 413.929688 1132.664062 411.410156 C 1132.523438 408.886719 1132.320312 406.371094 1132.054688 403.859375 C 1131.789062 401.351562 1131.460938 398.847656 1131.070312 396.351562 C 1130.683594 393.855469 1130.234375 391.375 1129.722656 388.902344 C 1129.210938 386.429688 1128.640625 383.96875 1128.007812 381.523438 C 1127.378906 379.078125 1126.6875 376.652344 1125.9375 374.242188 C 1125.1875 371.832031 1124.375 369.441406 1123.507812 367.070312 C 1122.640625 364.699219 1121.714844 362.351562 1120.730469 360.023438 C 1119.746094 357.699219 1118.707031 355.398438 1117.609375 353.125 C 1116.515625 350.851562 1115.363281 348.605469 1114.15625 346.386719 C 1112.949219 344.167969 1111.6875 341.980469 1110.375 339.824219 C 1109.0625 337.667969 1107.695312 335.546875 1106.277344 333.457031 C 1104.855469 331.371094 1103.386719 329.316406 1101.871094 327.300781 C 1100.351562 325.285156 1098.78125 323.304688 1097.164062 321.367188 C 1095.550781 319.425781 1093.886719 317.527344 1092.175781 315.667969 C 1090.464844 313.8125 1088.710938 311.996094 1086.914062 310.226562 C 1085.113281 308.453125 1083.273438 306.726562 1081.390625 305.046875 C 1081.144531 304.828125 1080.882812 304.636719 1080.605469 304.472656 C 1080.324219 304.304688 1080.027344 304.167969 1079.722656 304.0625 C 1079.414062 303.953125 1079.097656 303.875 1078.777344 303.832031 C 1078.453125 303.785156 1078.128906 303.773438 1077.804688 303.789062 C 1077.476562 303.808594 1077.15625 303.859375 1076.839844 303.941406 C 1076.527344 304.019531 1076.222656 304.132812 1075.925781 304.273438 C 1075.632812 304.414062 1075.355469 304.582031 1075.097656 304.78125 C 1074.835938 304.976562 1074.597656 305.195312 1074.378906 305.4375 C 1074.164062 305.679688 1073.972656 305.945312 1073.804688 306.222656 C 1073.640625 306.503906 1073.503906 306.800781 1073.394531 307.105469 C 1073.289062 307.414062 1073.210938 307.730469 1073.164062 308.050781 C 1073.121094 308.375 1073.105469 308.699219 1073.125 309.023438 C 1073.144531 309.351562 1073.191406 309.671875 1073.273438 309.988281 C 1073.355469 310.300781 1073.46875 310.605469 1073.609375 310.902344 C 1073.75 311.195312 1073.917969 311.472656 1074.113281 311.730469 C 1074.3125 311.992188 1074.53125 312.230469 1074.773438 312.449219 C 1076.535156 314.019531 1078.261719 315.636719 1079.945312 317.292969 C 1081.628906 318.953125 1083.273438 320.648438 1084.875 322.390625 C 1086.476562 324.128906 1088.03125 325.902344 1089.546875 327.71875 C 1091.058594 329.535156 1092.527344 331.386719 1093.949219 333.273438 C 1095.375 335.160156 1096.75 337.082031 1098.078125 339.035156 C 1099.40625 340.992188 1100.683594 342.976562 1101.914062 344.996094 C 1103.144531 347.011719 1104.328125 349.058594 1105.457031 351.132812 C 1106.585938 353.210938 1107.664062 355.3125 1108.691406 357.441406 C 1109.71875 359.570312 1110.691406 361.722656 1111.613281 363.898438 C 1112.535156 366.074219 1113.402344 368.273438 1114.214844 370.492188 C 1115.027344 372.710938 1115.785156 374.949219 1116.488281 377.207031 C 1117.191406 379.460938 1117.835938 381.734375 1118.429688 384.023438 C 1119.019531 386.3125 1119.554688 388.613281 1120.03125 390.925781 C 1120.511719 393.242188 1120.929688 395.566406 1121.292969 397.902344 C 1121.660156 400.238281 1121.964844 402.582031 1122.214844 404.929688 C 1122.460938 407.28125 1122.652344 409.636719 1122.785156 411.996094 C 1122.917969 414.355469 1122.992188 416.714844 1123.011719 419.078125 C 1123.027344 421.441406 1122.984375 423.804688 1122.886719 426.167969 C 1122.789062 428.527344 1122.628906 430.886719 1122.414062 433.238281 C 1122.199219 435.59375 1121.925781 437.941406 1121.597656 440.28125 C 1121.265625 442.621094 1120.878906 444.949219 1120.433594 447.273438 C 1119.988281 449.59375 1119.484375 451.902344 1118.925781 454.199219 C 1118.367188 456.496094 1117.753906 458.777344 1117.082031 461.042969 C 1116.414062 463.308594 1115.6875 465.554688 1114.90625 467.785156 C 1114.125 470.019531 1113.289062 472.226562 1112.398438 474.417969 C 1111.507812 476.605469 1110.566406 478.773438 1109.570312 480.914062 C 1108.574219 483.058594 1107.523438 485.175781 1106.425781 487.269531 C 1105.324219 489.359375 1104.171875 491.421875 1102.972656 493.457031 C 1101.769531 495.492188 1100.519531 497.496094 1099.21875 499.472656 C 1097.917969 501.445312 1096.570312 503.382812 1095.175781 505.292969 C 1093.777344 507.199219 1092.335938 509.070312 1090.847656 510.90625 C 1089.363281 512.742188 1087.828125 514.542969 1086.253906 516.304688 C 1085.933594 516.660156 1085.675781 517.058594 1085.472656 517.492188 C 1085.265625 517.921875 1085.128906 518.375 1085.054688 518.851562 C 1084.984375 519.324219 1084.980469 519.796875 1085.042969 520.273438 C 1085.105469 520.746094 1085.238281 521.203125 1085.433594 521.640625 C 1085.628906 522.074219 1085.882812 522.476562 1086.195312 522.839844 C 1086.503906 523.203125 1086.863281 523.515625 1087.261719 523.777344 C 1087.664062 524.035156 1088.09375 524.234375 1088.554688 524.371094 C 1089.011719 524.507812 1089.480469 524.578125 1089.960938 524.578125 Z M 1089.960938 524.515625 " fill-opacity="1" fill-rule="nonzero"/><path fill="#000000" d="M 1222.191406 642.515625 C 1222.898438 642.515625 1223.574219 642.371094 1224.21875 642.082031 C 1224.863281 641.792969 1225.417969 641.386719 1225.886719 640.859375 C 1347.605469 504.441406 1335.707031 294.472656 1199.375 172.8125 C 1199.132812 172.597656 1198.871094 172.40625 1198.589844 172.238281 C 1198.308594 172.074219 1198.015625 171.9375 1197.707031 171.828125 C 1197.398438 171.722656 1197.085938 171.644531 1196.761719 171.597656 C 1196.4375 171.554688 1196.113281 171.539062 1195.789062 171.558594 C 1195.464844 171.578125 1195.144531 171.625 1194.828125 171.707031 C 1194.511719 171.789062 1194.207031 171.902344 1193.914062 172.042969 C 1193.621094 172.183594 1193.34375 172.351562 1193.082031 172.546875 C 1192.820312 172.746094 1192.582031 172.964844 1192.367188 173.207031 C 1192.148438 173.449219 1191.957031 173.710938 1191.792969 173.992188 C 1191.625 174.273438 1191.488281 174.566406 1191.382812 174.875 C 1191.273438 175.183594 1191.195312 175.5 1191.152344 175.820312 C 1191.105469 176.144531 1191.09375 176.46875 1191.109375 176.792969 C 1191.128906 177.117188 1191.179688 177.4375 1191.261719 177.753906 C 1191.339844 178.070312 1191.453125 178.375 1191.59375 178.667969 C 1191.734375 178.960938 1191.90625 179.238281 1192.101562 179.5 C 1192.296875 179.761719 1192.515625 180 1192.757812 180.214844 C 1325.015625 298.238281 1336.554688 501.914062 1218.484375 634.242188 C 1218.167969 634.597656 1217.90625 634.996094 1217.703125 635.429688 C 1217.5 635.863281 1217.359375 636.316406 1217.289062 636.789062 C 1217.214844 637.261719 1217.210938 637.734375 1217.273438 638.210938 C 1217.339844 638.683594 1217.46875 639.140625 1217.664062 639.578125 C 1217.859375 640.015625 1218.113281 640.414062 1218.425781 640.777344 C 1218.738281 641.140625 1219.09375 641.453125 1219.496094 641.714844 C 1219.898438 641.976562 1220.328125 642.171875 1220.785156 642.308594 C 1221.246094 642.445312 1221.714844 642.515625 1222.191406 642.515625 Z M 1222.191406 642.515625 " fill-opacity="1" fill-rule="nonzero"/><path fill="#000000" d="M 1089.960938 524.515625 C 1090.667969 524.519531 1091.34375 524.375 1091.992188 524.085938 C 1092.636719 523.796875 1093.195312 523.386719 1093.667969 522.859375 C 1095.351562 520.976562 1096.988281 519.054688 1098.574219 517.09375 C 1100.164062 515.128906 1101.703125 513.128906 1103.191406 511.089844 C 1104.683594 509.054688 1106.121094 506.980469 1107.511719 504.871094 C 1108.898438 502.761719 1110.234375 500.621094 1111.515625 498.445312 C 1112.800781 496.269531 1114.027344 494.066406 1115.203125 491.832031 C 1116.378906 489.59375 1117.496094 487.332031 1118.5625 485.042969 C 1119.625 482.753906 1120.632812 480.4375 1121.582031 478.097656 C 1122.53125 475.757812 1123.421875 473.398438 1124.257812 471.015625 C 1125.089844 468.632812 1125.867188 466.230469 1126.582031 463.808594 C 1127.296875 461.386719 1127.953125 458.949219 1128.550781 456.496094 C 1129.144531 454.042969 1129.679688 451.574219 1130.15625 449.097656 C 1130.632812 446.617188 1131.046875 444.125 1131.398438 441.625 C 1131.75 439.125 1132.042969 436.617188 1132.269531 434.105469 C 1132.5 431.589844 1132.667969 429.070312 1132.773438 426.546875 C 1132.878906 424.027344 1132.921875 421.5 1132.90625 418.976562 C 1132.886719 416.453125 1132.808594 413.929688 1132.664062 411.410156 C 1132.523438 408.886719 1132.320312 406.371094 1132.054688 403.859375 C 1131.789062 401.351562 1131.460938 398.847656 1131.070312 396.351562 C 1130.683594 393.855469 1130.234375 391.375 1129.722656 388.902344 C 1129.210938 386.429688 1128.640625 383.96875 1128.007812 381.523438 C 1127.378906 379.078125 1126.6875 376.652344 1125.9375 374.242188 C 1125.1875 371.832031 1124.375 369.441406 1123.507812 367.070312 C 1122.640625 364.699219 1121.714844 362.351562 1120.730469 360.023438 C 1119.746094 357.699219 1118.707031 355.398438 1117.609375 353.125 C 1116.515625 350.851562 1115.363281 348.605469 1114.15625 346.386719 C 1112.949219 344.167969 1111.6875 341.980469 1110.375 339.824219 C 1109.0625 337.667969 1107.695312 335.546875 1106.277344 333.457031 C 1104.855469 331.371094 1103.386719 329.316406 1101.871094 327.300781 C 1100.351562 325.285156 1098.78125 323.304688 1097.164062 321.367188 C 1095.550781 319.425781 1093.886719 317.527344 1092.175781 315.667969 C 1090.464844 313.8125 1088.710938 311.996094 1086.914062 310.226562 C 1085.113281 308.453125 1083.273438 306.726562 1081.390625 305.046875 C 1081.144531 304.828125 1080.882812 304.636719 1080.605469 304.472656 C 1080.324219 304.304688 1080.027344 304.167969 1079.722656 304.0625 C 1079.414062 303.953125 1079.097656 303.875 1078.777344 303.832031 C 1078.453125 303.785156 1078.128906 303.773438 1077.804688 303.789062 C 1077.476562 303.808594 1077.15625 303.859375 1076.839844 303.941406 C 1076.527344 304.019531 1076.222656 304.132812 1075.925781 304.273438 C 1075.632812 304.414062 1075.355469 304.582031 1075.097656 304.78125 C 1074.835938 304.976562 1074.597656 305.195312 1074.378906 305.4375 C 1074.164062 305.679688 1073.972656 305.945312 1073.804688 306.222656 C 1073.640625 306.503906 1073.503906 306.800781 1073.394531 307.105469 C 1073.289062 307.414062 1073.210938 307.730469 1073.164062 308.050781 C 1073.121094 308.375 1073.105469 308.699219 1073.125 309.023438 C 1073.144531 309.351562 1073.191406 309.671875 1073.273438 309.988281 C 1073.355469 310.300781 1073.46875 310.605469 1073.609375 310.902344 C 1073.75 311.195312 1073.917969 311.472656 1074.113281 311.730469 C 1074.3125 311.992188 1074.53125 312.230469 1074.773438 312.449219 C 1076.535156 314.019531 1078.261719 315.636719 1079.945312 317.292969 C 1081.628906 318.953125 1083.273438 320.648438 1084.875 322.390625 C 1086.476562 324.128906 1088.03125 325.902344 1089.546875 327.71875 C 1091.058594 329.535156 1092.527344 331.386719 1093.949219 333.273438 C 1095.375 335.160156 1096.75 337.082031 1098.078125 339.035156 C 1099.40625 340.992188 1100.683594 342.976562 1101.914062 344.996094 C 1103.144531 347.011719 1104.328125 349.058594 1105.457031 351.132812 C 1106.585938 353.210938 1107.664062 355.3125 1108.691406 357.441406 C 1109.71875 359.570312 1110.691406 361.722656 1111.613281 363.898438 C 1112.535156 366.074219 1113.402344 368.273438 1114.214844 370.492188 C 1115.027344 372.710938 1115.785156 374.949219 1116.488281 377.207031 C 1117.191406 379.460938 1117.835938 381.734375 1118.429688 384.023438 C 1119.019531 386.3125 1119.554688 388.613281 1120.03125 390.925781 C 1120.511719 393.242188 1120.929688 395.566406 1121.292969 397.902344 C 1121.660156 400.238281 1121.964844 402.582031 1122.214844 404.929688 C 1122.460938 407.28125 1122.652344 409.636719 1122.785156 411.996094 C 1122.917969 414.355469 1122.992188 416.714844 1123.011719 419.078125 C 1123.027344 421.441406 1122.984375 423.804688 1122.886719 426.167969 C 1122.789062 428.527344 1122.628906 430.886719 1122.414062 433.238281 C 1122.199219 435.59375 1121.925781 437.941406 1121.597656 440.28125 C 1121.265625 442.621094 1120.878906 444.949219 1120.433594 447.273438 C 1119.988281 449.59375 1119.484375 451.902344 1118.925781 454.199219 C 1118.367188 456.496094 1117.753906 458.777344 1117.082031 461.042969 C 1116.414062 463.308594 1115.6875 465.554688 1114.90625 467.785156 C 1114.125 470.019531 1113.289062 472.226562 1112.398438 474.417969 C 1111.507812 476.605469 1110.566406 478.773438 1109.570312 480.914062 C 1108.574219 483.058594 1107.523438 485.175781 1106.425781 487.269531 C 1105.324219 489.359375 1104.171875 491.421875 1102.972656 493.457031 C 1101.769531 495.492188 1100.519531 497.496094 1099.21875 499.472656 C 1097.917969 501.445312 1096.570312 503.382812 1095.175781 505.292969 C 1093.777344 507.199219 1092.335938 509.070312 1090.847656 510.90625 C 1089.363281 512.742188 1087.828125 514.542969 1086.253906 516.304688 C 1085.933594 516.660156 1085.675781 517.058594 1085.472656 517.492188 C 1085.265625 517.921875 1085.128906 518.375 1085.054688 518.851562 C 1084.984375 519.324219 1084.980469 519.796875 1085.042969 520.273438 C 1085.105469 520.746094 1085.238281 521.203125 1085.433594 521.640625 C 1085.628906 522.074219 1085.882812 522.476562 1086.195312 522.839844 C 1086.503906 523.203125 1086.863281 523.515625 1087.261719 523.777344 C 1087.664062 524.035156 1088.09375 524.234375 1088.554688 524.371094 C 1089.011719 524.507812 1089.480469 524.578125 1089.960938 524.578125 Z M 1089.960938 524.515625 " fill-opacity="1" fill-rule="nonzero"/><path fill="#000000" d="M 1156.078125 583.480469 C 1156.78125 583.480469 1157.457031 583.335938 1158.101562 583.046875 C 1158.746094 582.757812 1159.304688 582.351562 1159.773438 581.824219 C 1248.933594 481.886719 1240.265625 328.054688 1140.449219 238.953125 C 1140.203125 238.734375 1139.941406 238.542969 1139.664062 238.378906 C 1139.382812 238.214844 1139.085938 238.078125 1138.78125 237.96875 C 1138.472656 237.859375 1138.15625 237.785156 1137.832031 237.738281 C 1137.511719 237.695312 1137.1875 237.679688 1136.863281 237.699219 C 1136.535156 237.714844 1136.214844 237.765625 1135.898438 237.847656 C 1135.585938 237.929688 1135.28125 238.039062 1134.984375 238.183594 C 1134.691406 238.324219 1134.414062 238.492188 1134.15625 238.6875 C 1133.894531 238.882812 1133.65625 239.101562 1133.4375 239.347656 C 1133.222656 239.589844 1133.03125 239.851562 1132.863281 240.132812 C 1132.699219 240.414062 1132.5625 240.707031 1132.453125 241.015625 C 1132.347656 241.324219 1132.269531 241.636719 1132.222656 241.960938 C 1132.179688 242.285156 1132.164062 242.609375 1132.183594 242.933594 C 1132.203125 243.257812 1132.25 243.578125 1132.332031 243.894531 C 1132.414062 244.210938 1132.527344 244.515625 1132.667969 244.808594 C 1132.808594 245.101562 1132.976562 245.378906 1133.171875 245.640625 C 1133.367188 245.898438 1133.589844 246.140625 1133.832031 246.355469 C 1229.632812 331.84375 1237.976562 479.394531 1152.429688 575.265625 C 1152.109375 575.625 1151.851562 576.019531 1151.644531 576.453125 C 1151.441406 576.886719 1151.304688 577.339844 1151.230469 577.8125 C 1151.160156 578.285156 1151.15625 578.761719 1151.21875 579.234375 C 1151.28125 579.710938 1151.414062 580.164062 1151.609375 580.601562 C 1151.804688 581.039062 1152.058594 581.4375 1152.371094 581.800781 C 1152.679688 582.167969 1153.039062 582.476562 1153.4375 582.738281 C 1153.839844 583 1154.269531 583.199219 1154.730469 583.335938 C 1155.1875 583.472656 1155.65625 583.539062 1156.136719 583.539062 Z M 1156.078125 583.480469 " fill-opacity="1" fill-rule="nonzero"/><g clip-path="url(#c97f005f3e)"><path fill="#000000" d="M 151.71875 108.488281 C 151.007812 108.484375 150.332031 108.628906 149.6875 108.917969 C 149.039062 109.207031 148.480469 109.617188 148.011719 110.144531 C 73.40625 193.761719 35.816406 301.578125 42.195312 413.757812 C 48.574219 525.9375 98.070312 628.738281 181.617188 703.292969 C 181.859375 703.511719 182.121094 703.703125 182.402344 703.867188 C 182.683594 704.03125 182.976562 704.167969 183.285156 704.277344 C 183.59375 704.382812 183.90625 704.460938 184.230469 704.507812 C 184.554688 704.550781 184.878906 704.566406 185.203125 704.546875 C 185.527344 704.53125 185.847656 704.480469 186.164062 704.398438 C 186.480469 704.316406 186.785156 704.207031 187.078125 704.0625 C 187.371094 703.921875 187.648438 703.753906 187.910156 703.558594 C 188.171875 703.363281 188.410156 703.140625 188.625 702.898438 C 188.84375 702.65625 189.035156 702.394531 189.199219 702.113281 C 189.367188 701.832031 189.503906 701.539062 189.609375 701.230469 C 189.71875 700.921875 189.792969 700.609375 189.839844 700.285156 C 189.886719 699.960938 189.898438 699.636719 189.882812 699.3125 C 189.863281 698.988281 189.8125 698.667969 189.730469 698.351562 C 189.648438 698.035156 189.539062 697.730469 189.398438 697.4375 C 189.257812 697.144531 189.085938 696.867188 188.890625 696.605469 C 188.695312 696.34375 188.476562 696.105469 188.234375 695.890625 C 106.65625 623.085938 58.289062 522.695312 52.078125 413.1875 C 45.867188 303.675781 82.574219 198.386719 155.390625 116.761719 C 155.707031 116.40625 155.964844 116.011719 156.171875 115.578125 C 156.375 115.148438 156.511719 114.695312 156.585938 114.222656 C 156.660156 113.753906 156.664062 113.28125 156.601562 112.808594 C 156.539062 112.332031 156.410156 111.878906 156.21875 111.441406 C 156.023438 111.007812 155.773438 110.605469 155.464844 110.242188 C 155.15625 109.878906 154.800781 109.566406 154.402344 109.304688 C 154.003906 109.042969 153.574219 108.839844 153.117188 108.703125 C 152.660156 108.5625 152.195312 108.492188 151.71875 108.488281 Z M 151.71875 108.488281 " fill-opacity="1" fill-rule="nonzero"/></g><path fill="#000000" d="M 350.03125 285.472656 C 349.320312 285.472656 348.644531 285.617188 348 285.90625 C 347.351562 286.195312 346.792969 286.601562 346.320312 287.128906 C 344.640625 289.011719 343.003906 290.933594 341.414062 292.898438 C 339.828125 294.859375 338.289062 296.859375 336.796875 298.898438 C 335.308594 300.9375 333.867188 303.011719 332.480469 305.121094 C 331.089844 307.230469 329.757812 309.371094 328.472656 311.546875 C 327.191406 313.71875 325.960938 315.925781 324.785156 318.160156 C 323.613281 320.394531 322.492188 322.65625 321.429688 324.949219 C 320.367188 327.238281 319.359375 329.550781 318.410156 331.890625 C 317.460938 334.230469 316.566406 336.59375 315.734375 338.976562 C 314.898438 341.359375 314.125 343.761719 313.410156 346.183594 C 312.691406 348.601562 312.035156 351.039062 311.441406 353.496094 C 310.84375 355.949219 310.308594 358.414062 309.832031 360.894531 C 309.359375 363.375 308.945312 365.863281 308.59375 368.363281 C 308.238281 370.863281 307.949219 373.371094 307.71875 375.886719 C 307.488281 378.402344 307.320312 380.917969 307.214844 383.441406 C 307.109375 385.964844 307.066406 388.488281 307.085938 391.011719 C 307.101562 393.539062 307.183594 396.0625 307.324219 398.582031 C 307.46875 401.101562 307.671875 403.617188 307.9375 406.128906 C 308.203125 408.640625 308.53125 411.144531 308.917969 413.636719 C 309.308594 416.132812 309.757812 418.617188 310.265625 421.089844 C 310.777344 423.5625 311.347656 426.019531 311.980469 428.464844 C 312.613281 430.910156 313.304688 433.335938 314.054688 435.75 C 314.804688 438.160156 315.613281 440.550781 316.480469 442.921875 C 317.351562 445.292969 318.277344 447.640625 319.257812 449.964844 C 320.242188 452.292969 321.28125 454.589844 322.378906 456.867188 C 323.476562 459.140625 324.628906 461.386719 325.835938 463.605469 C 327.039062 465.820312 328.300781 468.007812 329.617188 470.164062 C 330.929688 472.320312 332.296875 474.441406 333.714844 476.53125 C 335.132812 478.621094 336.601562 480.671875 338.121094 482.691406 C 339.640625 484.707031 341.207031 486.683594 342.824219 488.625 C 344.441406 490.5625 346.105469 492.460938 347.8125 494.320312 C 349.523438 496.179688 351.277344 497.992188 353.078125 499.765625 C 354.875 501.539062 356.71875 503.261719 358.601562 504.945312 C 358.84375 505.164062 359.105469 505.355469 359.386719 505.519531 C 359.667969 505.683594 359.960938 505.820312 360.269531 505.929688 C 360.578125 506.035156 360.890625 506.113281 361.214844 506.160156 C 361.539062 506.203125 361.863281 506.21875 362.1875 506.199219 C 362.511719 506.183594 362.832031 506.132812 363.148438 506.050781 C 363.464844 505.96875 363.769531 505.859375 364.0625 505.714844 C 364.355469 505.574219 364.632812 505.40625 364.894531 505.210938 C 365.15625 505.015625 365.394531 504.792969 365.609375 504.550781 C 365.828125 504.308594 366.019531 504.046875 366.183594 503.765625 C 366.351562 503.484375 366.488281 503.191406 366.59375 502.882812 C 366.703125 502.574219 366.777344 502.261719 366.824219 501.9375 C 366.871094 501.613281 366.882812 501.289062 366.867188 500.964844 C 366.847656 500.640625 366.796875 500.320312 366.714844 500.003906 C 366.636719 499.6875 366.523438 499.382812 366.382812 499.089844 C 366.242188 498.796875 366.070312 498.519531 365.875 498.257812 C 365.679688 497.996094 365.460938 497.757812 365.21875 497.542969 C 363.453125 495.96875 361.730469 494.351562 360.042969 492.695312 C 358.359375 491.039062 356.71875 489.339844 355.117188 487.601562 C 353.515625 485.863281 351.957031 484.085938 350.445312 482.269531 C 348.929688 480.457031 347.460938 478.605469 346.039062 476.71875 C 344.617188 474.832031 343.242188 472.910156 341.914062 470.953125 C 340.585938 469 339.304688 467.011719 338.074219 464.996094 C 336.84375 462.976562 335.664062 460.929688 334.535156 458.855469 C 333.402344 456.78125 332.324219 454.675781 331.300781 452.550781 C 330.273438 450.421875 329.296875 448.269531 328.378906 446.089844 C 327.457031 443.914062 326.589844 441.714844 325.777344 439.496094 C 324.964844 437.277344 324.207031 435.039062 323.503906 432.785156 C 322.800781 430.527344 322.152344 428.253906 321.5625 425.964844 C 320.972656 423.679688 320.4375 421.378906 319.957031 419.0625 C 319.480469 416.746094 319.058594 414.421875 318.695312 412.089844 C 318.332031 409.753906 318.027344 407.410156 317.777344 405.058594 C 317.527344 402.710938 317.335938 400.355469 317.203125 397.996094 C 317.070312 395.636719 316.996094 393.273438 316.980469 390.910156 C 316.964844 388.546875 317.003906 386.183594 317.105469 383.824219 C 317.203125 381.460938 317.359375 379.105469 317.574219 376.75 C 317.789062 374.398438 318.0625 372.050781 318.394531 369.710938 C 318.722656 367.371094 319.113281 365.039062 319.558594 362.71875 C 320.003906 360.398438 320.503906 358.089844 321.0625 355.792969 C 321.621094 353.496094 322.234375 351.214844 322.90625 348.949219 C 323.578125 346.683594 324.304688 344.433594 325.085938 342.203125 C 325.867188 339.972656 326.703125 337.761719 327.589844 335.574219 C 328.480469 333.382812 329.425781 331.21875 330.421875 329.074219 C 331.417969 326.929688 332.464844 324.8125 333.566406 322.722656 C 334.664062 320.628906 335.816406 318.566406 337.019531 316.53125 C 338.21875 314.496094 339.472656 312.492188 340.773438 310.519531 C 342.074219 308.546875 343.421875 306.605469 344.816406 304.699219 C 346.210938 302.789062 347.652344 300.917969 349.140625 299.082031 C 350.628906 297.246094 352.160156 295.449219 353.738281 293.6875 C 354.054688 293.328125 354.316406 292.933594 354.519531 292.5 C 354.722656 292.066406 354.863281 291.613281 354.933594 291.140625 C 355.007812 290.667969 355.011719 290.191406 354.949219 289.71875 C 354.882812 289.242188 354.753906 288.789062 354.558594 288.351562 C 354.363281 287.914062 354.109375 287.515625 353.796875 287.152344 C 353.484375 286.785156 353.128906 286.476562 352.726562 286.214844 C 352.324219 285.953125 351.894531 285.753906 351.4375 285.617188 C 350.976562 285.480469 350.507812 285.414062 350.03125 285.414062 Z M 350.03125 285.472656 " fill-opacity="1" fill-rule="nonzero"/><path fill="#000000" d="M 350.03125 285.472656 C 349.320312 285.472656 348.644531 285.617188 348 285.90625 C 347.351562 286.195312 346.792969 286.601562 346.320312 287.128906 C 344.640625 289.011719 343.003906 290.933594 341.414062 292.898438 C 339.828125 294.859375 338.289062 296.859375 336.796875 298.898438 C 335.308594 300.9375 333.867188 303.011719 332.480469 305.121094 C 331.089844 307.230469 329.757812 309.371094 328.472656 311.546875 C 327.191406 313.71875 325.960938 315.925781 324.785156 318.160156 C 323.613281 320.394531 322.492188 322.65625 321.429688 324.949219 C 320.367188 327.238281 319.359375 329.550781 318.410156 331.890625 C 317.460938 334.230469 316.566406 336.59375 315.734375 338.976562 C 314.898438 341.359375 314.125 343.761719 313.410156 346.183594 C 312.691406 348.601562 312.035156 351.039062 311.441406 353.496094 C 310.84375 355.949219 310.308594 358.414062 309.832031 360.894531 C 309.359375 363.375 308.945312 365.863281 308.59375 368.363281 C 308.238281 370.863281 307.949219 373.371094 307.71875 375.886719 C 307.488281 378.402344 307.320312 380.917969 307.214844 383.441406 C 307.109375 385.964844 307.066406 388.488281 307.085938 391.011719 C 307.101562 393.539062 307.183594 396.0625 307.324219 398.582031 C 307.46875 401.101562 307.671875 403.617188 307.9375 406.128906 C 308.203125 408.640625 308.53125 411.144531 308.917969 413.636719 C 309.308594 416.132812 309.757812 418.617188 310.265625 421.089844 C 310.777344 423.5625 311.347656 426.019531 311.980469 428.464844 C 312.613281 430.910156 313.304688 433.335938 314.054688 435.75 C 314.804688 438.160156 315.613281 440.550781 316.480469 442.921875 C 317.351562 445.292969 318.277344 447.640625 319.257812 449.964844 C 320.242188 452.292969 321.28125 454.589844 322.378906 456.867188 C 323.476562 459.140625 324.628906 461.386719 325.835938 463.605469 C 327.039062 465.820312 328.300781 468.007812 329.617188 470.164062 C 330.929688 472.320312 332.296875 474.441406 333.714844 476.53125 C 335.132812 478.621094 336.601562 480.671875 338.121094 482.691406 C 339.640625 484.707031 341.207031 486.683594 342.824219 488.625 C 344.441406 490.5625 346.105469 492.460938 347.8125 494.320312 C 349.523438 496.179688 351.277344 497.992188 353.078125 499.765625 C 354.875 501.539062 356.71875 503.261719 358.601562 504.945312 C 358.84375 505.164062 359.105469 505.355469 359.386719 505.519531 C 359.667969 505.683594 359.960938 505.820312 360.269531 505.929688 C 360.578125 506.035156 360.890625 506.113281 361.214844 506.160156 C 361.539062 506.203125 361.863281 506.21875 362.1875 506.199219 C 362.511719 506.183594 362.832031 506.132812 363.148438 506.050781 C 363.464844 505.96875 363.769531 505.859375 364.0625 505.714844 C 364.355469 505.574219 364.632812 505.40625 364.894531 505.210938 C 365.15625 505.015625 365.394531 504.792969 365.609375 504.550781 C 365.828125 504.308594 366.019531 504.046875 366.183594 503.765625 C 366.351562 503.484375 366.488281 503.191406 366.59375 502.882812 C 366.703125 502.574219 366.777344 502.261719 366.824219 501.9375 C 366.871094 501.613281 366.882812 501.289062 366.867188 500.964844 C 366.847656 500.640625 366.796875 500.320312 366.714844 500.003906 C 366.636719 499.6875 366.523438 499.382812 366.382812 499.089844 C 366.242188 498.796875 366.070312 498.519531 365.875 498.257812 C 365.679688 497.996094 365.460938 497.757812 365.21875 497.542969 C 363.453125 495.96875 361.730469 494.351562 360.042969 492.695312 C 358.359375 491.039062 356.71875 489.339844 355.117188 487.601562 C 353.515625 485.863281 351.957031 484.085938 350.445312 482.269531 C 348.929688 480.457031 347.460938 478.605469 346.039062 476.71875 C 344.617188 474.832031 343.242188 472.910156 341.914062 470.953125 C 340.585938 469 339.304688 467.011719 338.074219 464.996094 C 336.84375 462.976562 335.664062 460.929688 334.535156 458.855469 C 333.402344 456.78125 332.324219 454.675781 331.300781 452.550781 C 330.273438 450.421875 329.296875 448.269531 328.378906 446.089844 C 327.457031 443.914062 326.589844 441.714844 325.777344 439.496094 C 324.964844 437.277344 324.207031 435.039062 323.503906 432.785156 C 322.800781 430.527344 322.152344 428.253906 321.5625 425.964844 C 320.972656 423.679688 320.4375 421.378906 319.957031 419.0625 C 319.480469 416.746094 319.058594 414.421875 318.695312 412.089844 C 318.332031 409.753906 318.027344 407.410156 317.777344 405.058594 C 317.527344 402.710938 317.335938 400.355469 317.203125 397.996094 C 317.070312 395.636719 316.996094 393.273438 316.980469 390.910156 C 316.964844 388.546875 317.003906 386.183594 317.105469 383.824219 C 317.203125 381.460938 317.359375 379.105469 317.574219 376.75 C 317.789062 374.398438 318.0625 372.050781 318.394531 369.710938 C 318.722656 367.371094 319.113281 365.039062 319.558594 362.71875 C 320.003906 360.398438 320.503906 358.089844 321.0625 355.792969 C 321.621094 353.496094 322.234375 351.214844 322.90625 348.949219 C 323.578125 346.683594 324.304688 344.433594 325.085938 342.203125 C 325.867188 339.972656 326.703125 337.761719 327.589844 335.574219 C 328.480469 333.382812 329.425781 331.21875 330.421875 329.074219 C 331.417969 326.929688 332.464844 324.8125 333.566406 322.722656 C 334.664062 320.628906 335.816406 318.566406 337.019531 316.53125 C 338.21875 314.496094 339.472656 312.492188 340.773438 310.519531 C 342.074219 308.546875 343.421875 306.605469 344.816406 304.699219 C 346.210938 302.789062 347.652344 300.917969 349.140625 299.082031 C 350.628906 297.246094 352.160156 295.449219 353.738281 293.6875 C 354.054688 293.328125 354.316406 292.933594 354.519531 292.5 C 354.722656 292.066406 354.863281 291.613281 354.933594 291.140625 C 355.007812 290.667969 355.011719 290.191406 354.949219 289.71875 C 354.882812 289.242188 354.753906 288.789062 354.558594 288.351562 C 354.363281 287.914062 354.109375 287.515625 353.796875 287.152344 C 353.484375 286.785156 353.128906 286.476562 352.726562 286.214844 C 352.324219 285.953125 351.894531 285.753906 351.4375 285.617188 C 350.976562 285.480469 350.507812 285.414062 350.03125 285.414062 Z M 350.03125 285.472656 " fill-opacity="1" fill-rule="nonzero"/><path fill="#000000" d="M 217.796875 167.476562 C 217.089844 167.476562 216.417969 167.621094 215.773438 167.90625 C 215.128906 168.195312 214.570312 168.605469 214.101562 169.132812 C 92.386719 305.546875 104.28125 515.519531 240.613281 637.175781 C 240.859375 637.394531 241.121094 637.585938 241.402344 637.75 C 241.679688 637.917969 241.976562 638.054688 242.285156 638.160156 C 242.589844 638.269531 242.90625 638.34375 243.230469 638.390625 C 243.550781 638.4375 243.875 638.449219 244.203125 638.433594 C 244.527344 638.414062 244.847656 638.363281 245.164062 638.28125 C 245.480469 638.199219 245.785156 638.089844 246.078125 637.949219 C 246.371094 637.804688 246.648438 637.636719 246.910156 637.441406 C 247.167969 637.246094 247.40625 637.027344 247.625 636.785156 C 247.84375 636.539062 248.035156 636.277344 248.199219 635.996094 C 248.363281 635.71875 248.5 635.421875 248.609375 635.113281 C 248.714844 634.808594 248.792969 634.492188 248.839844 634.167969 C 248.882812 633.847656 248.898438 633.523438 248.878906 633.195312 C 248.863281 632.871094 248.8125 632.550781 248.730469 632.234375 C 248.648438 631.917969 248.539062 631.613281 248.394531 631.320312 C 248.253906 631.027344 248.085938 630.75 247.890625 630.488281 C 247.695312 630.230469 247.472656 629.992188 247.230469 629.773438 C 114.976562 511.753906 103.4375 308.074219 221.503906 175.75 C 221.824219 175.390625 222.085938 174.996094 222.289062 174.5625 C 222.492188 174.128906 222.628906 173.675781 222.703125 173.203125 C 222.777344 172.730469 222.78125 172.253906 222.714844 171.78125 C 222.652344 171.304688 222.523438 170.851562 222.324219 170.414062 C 222.128906 169.976562 221.875 169.574219 221.566406 169.210938 C 221.253906 168.847656 220.898438 168.535156 220.496094 168.277344 C 220.09375 168.015625 219.664062 167.816406 219.203125 167.679688 C 218.746094 167.542969 218.277344 167.476562 217.796875 167.476562 Z M 217.796875 167.476562 " fill-opacity="1" fill-rule="nonzero"/><path fill="#000000" d="M 350.03125 285.472656 C 349.320312 285.472656 348.644531 285.617188 348 285.90625 C 347.351562 286.195312 346.792969 286.601562 346.320312 287.128906 C 344.640625 289.011719 343.003906 290.933594 341.414062 292.898438 C 339.828125 294.859375 338.289062 296.859375 336.796875 298.898438 C 335.308594 300.9375 333.867188 303.011719 332.480469 305.121094 C 331.089844 307.230469 329.757812 309.371094 328.472656 311.546875 C 327.191406 313.71875 325.960938 315.925781 324.785156 318.160156 C 323.613281 320.394531 322.492188 322.65625 321.429688 324.949219 C 320.367188 327.238281 319.359375 329.550781 318.410156 331.890625 C 317.460938 334.230469 316.566406 336.59375 315.734375 338.976562 C 314.898438 341.359375 314.125 343.761719 313.410156 346.183594 C 312.691406 348.601562 312.035156 351.039062 311.441406 353.496094 C 310.84375 355.949219 310.308594 358.414062 309.832031 360.894531 C 309.359375 363.375 308.945312 365.863281 308.59375 368.363281 C 308.238281 370.863281 307.949219 373.371094 307.71875 375.886719 C 307.488281 378.402344 307.320312 380.917969 307.214844 383.441406 C 307.109375 385.964844 307.066406 388.488281 307.085938 391.011719 C 307.101562 393.539062 307.183594 396.0625 307.324219 398.582031 C 307.46875 401.101562 307.671875 403.617188 307.9375 406.128906 C 308.203125 408.640625 308.53125 411.144531 308.917969 413.636719 C 309.308594 416.132812 309.757812 418.617188 310.265625 421.089844 C 310.777344 423.5625 311.347656 426.019531 311.980469 428.464844 C 312.613281 430.910156 313.304688 433.335938 314.054688 435.75 C 314.804688 438.160156 315.613281 440.550781 316.480469 442.921875 C 317.351562 445.292969 318.277344 447.640625 319.257812 449.964844 C 320.242188 452.292969 321.28125 454.589844 322.378906 456.867188 C 323.476562 459.140625 324.628906 461.386719 325.835938 463.605469 C 327.039062 465.820312 328.300781 468.007812 329.617188 470.164062 C 330.929688 472.320312 332.296875 474.441406 333.714844 476.53125 C 335.132812 478.621094 336.601562 480.671875 338.121094 482.691406 C 339.640625 484.707031 341.207031 486.683594 342.824219 488.625 C 344.441406 490.5625 346.105469 492.460938 347.8125 494.320312 C 349.523438 496.179688 351.277344 497.992188 353.078125 499.765625 C 354.875 501.539062 356.71875 503.261719 358.601562 504.945312 C 358.84375 505.164062 359.105469 505.355469 359.386719 505.519531 C 359.667969 505.683594 359.960938 505.820312 360.269531 505.929688 C 360.578125 506.035156 360.890625 506.113281 361.214844 506.160156 C 361.539062 506.203125 361.863281 506.21875 362.1875 506.199219 C 362.511719 506.183594 362.832031 506.132812 363.148438 506.050781 C 363.464844 505.96875 363.769531 505.859375 364.0625 505.714844 C 364.355469 505.574219 364.632812 505.40625 364.894531 505.210938 C 365.15625 505.015625 365.394531 504.792969 365.609375 504.550781 C 365.828125 504.308594 366.019531 504.046875 366.183594 503.765625 C 366.351562 503.484375 366.488281 503.191406 366.59375 502.882812 C 366.703125 502.574219 366.777344 502.261719 366.824219 501.9375 C 366.871094 501.613281 366.882812 501.289062 366.867188 500.964844 C 366.847656 500.640625 366.796875 500.320312 366.714844 500.003906 C 366.636719 499.6875 366.523438 499.382812 366.382812 499.089844 C 366.242188 498.796875 366.070312 498.519531 365.875 498.257812 C 365.679688 497.996094 365.460938 497.757812 365.21875 497.542969 C 363.453125 495.96875 361.730469 494.351562 360.042969 492.695312 C 358.359375 491.039062 356.71875 489.339844 355.117188 487.601562 C 353.515625 485.863281 351.957031 484.085938 350.445312 482.269531 C 348.929688 480.457031 347.460938 478.605469 346.039062 476.71875 C 344.617188 474.832031 343.242188 472.910156 341.914062 470.953125 C 340.585938 469 339.304688 467.011719 338.074219 464.996094 C 336.84375 462.976562 335.664062 460.929688 334.535156 458.855469 C 333.402344 456.78125 332.324219 454.675781 331.300781 452.550781 C 330.273438 450.421875 329.296875 448.269531 328.378906 446.089844 C 327.457031 443.914062 326.589844 441.714844 325.777344 439.496094 C 324.964844 437.277344 324.207031 435.039062 323.503906 432.785156 C 322.800781 430.527344 322.152344 428.253906 321.5625 425.964844 C 320.972656 423.679688 320.4375 421.378906 319.957031 419.0625 C 319.480469 416.746094 319.058594 414.421875 318.695312 412.089844 C 318.332031 409.753906 318.027344 407.410156 317.777344 405.058594 C 317.527344 402.710938 317.335938 400.355469 317.203125 397.996094 C 317.070312 395.636719 316.996094 393.273438 316.980469 390.910156 C 316.964844 388.546875 317.003906 386.183594 317.105469 383.824219 C 317.203125 381.460938 317.359375 379.105469 317.574219 376.75 C 317.789062 374.398438 318.0625 372.050781 318.394531 369.710938 C 318.722656 367.371094 319.113281 365.039062 319.558594 362.71875 C 320.003906 360.398438 320.503906 358.089844 321.0625 355.792969 C 321.621094 353.496094 322.234375 351.214844 322.90625 348.949219 C 323.578125 346.683594 324.304688 344.433594 325.085938 342.203125 C 325.867188 339.972656 326.703125 337.761719 327.589844 335.574219 C 328.480469 333.382812 329.425781 331.21875 330.421875 329.074219 C 331.417969 326.929688 332.464844 324.8125 333.566406 322.722656 C 334.664062 320.628906 335.816406 318.566406 337.019531 316.53125 C 338.21875 314.496094 339.472656 312.492188 340.773438 310.519531 C 342.074219 308.546875 343.421875 306.605469 344.816406 304.699219 C 346.210938 302.789062 347.652344 300.917969 349.140625 299.082031 C 350.628906 297.246094 352.160156 295.449219 353.738281 293.6875 C 354.054688 293.328125 354.316406 292.933594 354.519531 292.5 C 354.722656 292.066406 354.863281 291.613281 354.933594 291.140625 C 355.007812 290.667969 355.011719 290.191406 354.949219 289.71875 C 354.882812 289.242188 354.753906 288.789062 354.558594 288.351562 C 354.363281 287.914062 354.109375 287.515625 353.796875 287.152344 C 353.484375 286.785156 353.128906 286.476562 352.726562 286.214844 C 352.324219 285.953125 351.894531 285.753906 351.4375 285.617188 C 350.976562 285.480469 350.507812 285.414062 350.03125 285.414062 Z M 350.03125 285.472656 " fill-opacity="1" fill-rule="nonzero"/><path fill="#000000" d="M 283.914062 226.507812 C 283.207031 226.507812 282.53125 226.652344 281.886719 226.941406 C 281.246094 227.230469 280.6875 227.640625 280.21875 228.167969 C 191.058594 328.101562 199.726562 481.9375 299.542969 571.035156 C 299.785156 571.253906 300.046875 571.445312 300.328125 571.609375 C 300.609375 571.777344 300.902344 571.914062 301.210938 572.019531 C 301.519531 572.128906 301.832031 572.207031 302.15625 572.25 C 302.480469 572.296875 302.804688 572.308594 303.128906 572.292969 C 303.453125 572.273438 303.773438 572.222656 304.089844 572.140625 C 304.40625 572.0625 304.710938 571.949219 305.003906 571.808594 C 305.296875 571.667969 305.574219 571.5 305.835938 571.300781 C 306.097656 571.105469 306.335938 570.886719 306.550781 570.644531 C 306.769531 570.402344 306.960938 570.136719 307.125 569.859375 C 307.292969 569.578125 307.429688 569.28125 307.535156 568.976562 C 307.644531 568.667969 307.722656 568.351562 307.765625 568.03125 C 307.8125 567.707031 307.824219 567.382812 307.808594 567.058594 C 307.789062 566.730469 307.738281 566.410156 307.65625 566.09375 C 307.578125 565.78125 307.464844 565.476562 307.324219 565.179688 C 307.183594 564.886719 307.011719 564.609375 306.816406 564.351562 C 306.621094 564.089844 306.402344 563.851562 306.160156 563.632812 C 210.359375 478.144531 202.015625 330.59375 287.5625 234.722656 C 287.878906 234.367188 288.140625 233.96875 288.34375 233.535156 C 288.546875 233.101562 288.6875 232.648438 288.757812 232.175781 C 288.832031 231.703125 288.835938 231.230469 288.773438 230.753906 C 288.707031 230.28125 288.578125 229.824219 288.382812 229.386719 C 288.1875 228.953125 287.933594 228.550781 287.621094 228.1875 C 287.308594 227.824219 286.953125 227.511719 286.550781 227.25 C 286.148438 226.992188 285.71875 226.792969 285.261719 226.65625 C 284.800781 226.519531 284.332031 226.449219 283.855469 226.449219 Z M 283.914062 226.507812 " fill-opacity="1" fill-rule="nonzero"/></svg>